<svg viewBox="0 0 600 600" xmlns="http://www.w3.org/2000/svg">
  <defs>
    <clipPath id="frame">
      <path d="M22 0 L600 0 L600 578 L578 600 L0 600 L0 22 Z"/>
    </clipPath>
  </defs>

  <g clip-path="url(#frame)">
    <rect width="600" height="600" fill="#f1ebe1"/>

    <path d="M -20 120 C 120 40, 260 90, 340 40 C 430 -10, 520 60, 630 30
             L 630 630 L -20 630 Z"
          fill="#e4dccd"/>

    <path d="M -20 260 C 90 210, 180 300, 300 260 C 400 228, 480 300, 630 250
             L 630 630 L -20 630 Z"
          fill="#e9e2d5"/>

    <g stroke="#d8cebb" stroke-width="1">
      <line x1="0" y1="60" x2="600" y2="60"/>
      <line x1="0" y1="160" x2="600" y2="160"/>
      <line x1="0" y1="260" x2="600" y2="260"/>
      <line x1="0" y1="360" x2="600" y2="360"/>
      <line x1="0" y1="460" x2="600" y2="460"/>
      <line x1="0" y1="560" x2="600" y2="560"/>
      <line x1="60" y1="0" x2="60" y2="600"/>
      <line x1="160" y1="0" x2="160" y2="600"/>
      <line x1="260" y1="0" x2="260" y2="600"/>
      <line x1="360" y1="0" x2="360" y2="600"/>
      <line x1="460" y1="0" x2="460" y2="600"/>
      <line x1="560" y1="0" x2="560" y2="600"/>
    </g>
  </g>

  <path d="M175 210 C 260 260, 300 340, 245 405" fill="none"
        stroke="#a9813f" stroke-width="2.5" stroke-dasharray="2 10" stroke-linecap="round"/>
  <path d="M245 405 C 320 430, 380 380, 430 300" fill="none"
        stroke="#a9813f" stroke-width="2.5" stroke-dasharray="2 10" stroke-linecap="round"/>

  <g>
    <circle cx="430" cy="300" r="34" fill="#7a1220" opacity=".08"/>
    <circle cx="430" cy="300" r="9" fill="#7a1220"/>
    <circle cx="430" cy="300" r="9" fill="none" stroke="#faf7f2" stroke-width="2.5"/>
    <text x="430" y="352" text-anchor="middle" font-family="Source Sans 3, sans-serif" font-weight="700" font-size="20" fill="#17130f">Niterói</text>
  </g>

  <g>
    <circle cx="245" cy="405" r="38" fill="#7a1220" opacity=".1"/>
    <circle cx="245" cy="405" r="10" fill="#7a1220"/>
    <circle cx="245" cy="405" r="10" fill="none" stroke="#faf7f2" stroke-width="3"/>
    <text x="245" y="462" text-anchor="middle" font-family="Source Sans 3, sans-serif" font-weight="700" font-size="22" fill="#17130f">Rio de Janeiro</text>
  </g>

  <g>
    <circle cx="175" cy="210" r="28" fill="#7a1220" opacity=".08"/>
    <circle cx="175" cy="210" r="8" fill="#7a1220"/>
    <circle cx="175" cy="210" r="8" fill="none" stroke="#faf7f2" stroke-width="2.5"/>
    <text x="175" y="185" text-anchor="middle" font-family="Source Sans 3, sans-serif" font-weight="700" font-size="18" fill="#17130f">São Gonçalo</text>
  </g>

  <g transform="translate(90,470)" opacity=".9">
    <text x="0" y="0" font-family="Fraunces, serif" font-weight="600" font-style="italic" font-size="26" fill="#7a1220">Cobertura Rjx</text>
    <text x="0" y="26" font-family="Source Sans 3, sans-serif" font-size="14" fill="#5c554e">Região Metropolitana do Rio de Janeiro</text>
  </g>
</svg>
